<?xml version="1.0" encoding="UTF-8" standalone="no"?><svg xmlns="http://www.w3.org/2000/svg" xmlns:xlink="http://www.w3.org/1999/xlink" contentScriptType="application/ecmascript" contentStyleType="text/css" height="316px" preserveAspectRatio="none" style="width:584px;height:316px;" version="1.1" viewBox="0 0 584 316" width="584px" zoomAndPan="magnify"><defs><filter height="300%" id="fdd0olb8cp6n4" width="300%" x="-1" y="-1"><feGaussianBlur result="blurOut" stdDeviation="2.0"/><feColorMatrix in="blurOut" result="blurOut2" type="matrix" values="0 0 0 0 0 0 0 0 0 0 0 0 0 0 0 0 0 0 .4 0"/><feOffset dx="4.0" dy="4.0" in="blurOut2" result="blurOut3"/><feBlend in="SourceGraphic" in2="blurOut3" mode="normal"/></filter></defs><g><!--MD5=[bc899032e3052a7bbadb20e1fb407a39]
class ConnectionManger--><rect fill="#FEFECE" filter="url(#fdd0olb8cp6n4)" height="80.7852" id="ConnectionManger" style="stroke: #A80036; stroke-width: 1.5;" width="234" x="6" y="8"/><ellipse cx="47.1" cy="24" fill="#B4A7E5" rx="11" ry="11" style="stroke: #A80036; stroke-width: 1.0;"/><path d="M43.6938,18.7813 L43.6938,17.6875 L49.6938,17.6875 L49.6938,18.7813 L47.8188,18.7813 Q47.6781,18.7813 47.6156,18.8281 Q47.5688,18.8594 47.5688,18.9688 L47.5688,28.4531 Q47.5688,28.5625 47.6156,28.6094 Q47.6781,28.6406 47.8188,28.6406 L49.6938,28.6406 L49.6938,29.7344 L43.6938,29.7344 L43.6938,28.6406 L45.5688,28.6406 Q45.7563,28.6406 45.7875,28.6094 Q45.8188,28.5781 45.8188,28.4531 L45.8188,18.9688 Q45.8188,18.8438 45.7875,18.8125 Q45.7563,18.7813 45.5688,18.7813 L43.6938,18.7813 Z "/><text fill="#000000" font-family="Consolas" font-size="16" font-style="italic" lengthAdjust="spacingAndGlyphs" textLength="144" x="66.9" y="29.25">ConnectionManger</text><line style="stroke: #A80036; stroke-width: 1.5;" x1="7" x2="239" y1="40" y2="40"/><line style="stroke: #A80036; stroke-width: 1.5;" x1="7" x2="239" y1="48" y2="48"/><ellipse cx="17" cy="59" fill="#84BE84" rx="3" ry="3" style="stroke: #038048; stroke-width: 1.0;"/><text fill="#000000" font-family="Consolas" font-size="14" lengthAdjust="spacingAndGlyphs" textLength="208" x="26" y="64.79">void dial(String phoneNum)</text><ellipse cx="17" cy="75.3926" fill="#84BE84" rx="3" ry="3" style="stroke: #038048; stroke-width: 1.0;"/><text fill="#000000" font-family="Consolas" font-size="14" lengthAdjust="spacingAndGlyphs" textLength="104" x="26" y="81.1826">void hangUp()</text><!--MD5=[689b446dc4eebb5626c4713f493d91d1]
class DataTransfer--><rect fill="#FEFECE" filter="url(#fdd0olb8cp6n4)" height="64.3926" id="DataTransfer" style="stroke: #A80036; stroke-width: 1.5;" width="298" x="275" y="16.5"/><ellipse cx="365.75" cy="32.5" fill="#B4A7E5" rx="11" ry="11" style="stroke: #A80036; stroke-width: 1.0;"/><path d="M362.3438,27.2813 L362.3438,26.1875 L368.3438,26.1875 L368.3438,27.2813 L366.4688,27.2813 Q366.3281,27.2813 366.2656,27.3281 Q366.2188,27.3594 366.2188,27.4688 L366.2188,36.9531 Q366.2188,37.0625 366.2656,37.1094 Q366.3281,37.1406 366.4688,37.1406 L368.3438,37.1406 L368.3438,38.2344 L362.3438,38.2344 L362.3438,37.1406 L364.2188,37.1406 Q364.4063,37.1406 364.4375,37.1094 Q364.4688,37.0781 364.4688,36.9531 L364.4688,27.4688 Q364.4688,27.3438 364.4375,27.3125 Q364.4063,27.2813 364.2188,27.2813 L362.3438,27.2813 Z "/><text fill="#000000" font-family="Consolas" font-size="16" font-style="italic" lengthAdjust="spacingAndGlyphs" textLength="108" x="386.25" y="37.75">DataTransfer</text><line style="stroke: #A80036; stroke-width: 1.5;" x1="276" x2="572" y1="48.5" y2="48.5"/><line style="stroke: #A80036; stroke-width: 1.5;" x1="276" x2="572" y1="56.5" y2="56.5"/><ellipse cx="286" cy="67.5" fill="#84BE84" rx="3" ry="3" style="stroke: #038048; stroke-width: 1.0;"/><text fill="#000000" font-family="Consolas" font-size="14" lengthAdjust="spacingAndGlyphs" textLength="272" x="295" y="73.29">DataTransfer(ConnectionManger con)</text><!--MD5=[56c85f52cb2f2142c13a96ddcb5662e5]
class ConnectionMangerImpl--><rect fill="#FEFECE" filter="url(#fdd0olb8cp6n4)" height="48" id="ConnectionMangerImpl" style="stroke: #A80036; stroke-width: 1.5;" width="212" x="35" y="149"/><ellipse cx="50" cy="165" fill="#ADD1B2" rx="11" ry="11" style="stroke: #A80036; stroke-width: 1.0;"/><path d="M49.4219,170.8594 Q47.3906,170.8594 46.2031,169.3594 Q45.0313,167.8594 45.0313,164.75 Q45.0313,162.1094 46.2813,160.3438 Q47.5313,158.5625 49.6875,158.5625 Q50.2031,158.5625 50.7344,158.7031 Q51.1719,158.8906 51.4219,158.8906 Q51.6094,158.8906 51.7031,158.8594 Q51.7969,158.8125 52.3438,158.0938 L53.1563,162.0625 L52.1094,162.375 Q51.6563,160.875 51.0625,160.2969 Q50.4844,159.7031 49.5625,159.7031 Q48.3906,159.7031 47.6875,161.1094 Q46.9844,162.5 46.9844,164.6719 Q46.9844,167.0625 47.5781,168.3281 Q48.1875,169.5781 49.5,169.5781 Q50.4219,169.5781 51.0938,168.9063 Q51.7656,168.2188 52.0938,166.6406 L53.1406,167.1406 Q52.7344,168.9063 51.75,169.8906 Q50.7656,170.8594 49.4219,170.8594 Z "/><text fill="#000000" font-family="Consolas" font-size="16" lengthAdjust="spacingAndGlyphs" textLength="180" x="64" y="170.25">ConnectionMangerImpl</text><line style="stroke: #A80036; stroke-width: 1.5;" x1="36" x2="246" y1="181" y2="181"/><line style="stroke: #A80036; stroke-width: 1.5;" x1="36" x2="246" y1="189" y2="189"/><!--MD5=[65a7a7ea39f828183c113b18041d41a9]
class DataTransferImpl--><rect fill="#FEFECE" filter="url(#fdd0olb8cp6n4)" height="48" id="DataTransferImpl" style="stroke: #A80036; stroke-width: 1.5;" width="176" x="318" y="149"/><ellipse cx="333" cy="165" fill="#ADD1B2" rx="11" ry="11" style="stroke: #A80036; stroke-width: 1.0;"/><path d="M332.4219,170.8594 Q330.3906,170.8594 329.2031,169.3594 Q328.0313,167.8594 328.0313,164.75 Q328.0313,162.1094 329.2813,160.3438 Q330.5313,158.5625 332.6875,158.5625 Q333.2031,158.5625 333.7344,158.7031 Q334.1719,158.8906 334.4219,158.8906 Q334.6094,158.8906 334.7031,158.8594 Q334.7969,158.8125 335.3438,158.0938 L336.1563,162.0625 L335.1094,162.375 Q334.6563,160.875 334.0625,160.2969 Q333.4844,159.7031 332.5625,159.7031 Q331.3906,159.7031 330.6875,161.1094 Q329.9844,162.5 329.9844,164.6719 Q329.9844,167.0625 330.5781,168.3281 Q331.1875,169.5781 332.5,169.5781 Q333.4219,169.5781 334.0938,168.9063 Q334.7656,168.2188 335.0938,166.6406 L336.1406,167.1406 Q335.7344,168.9063 334.75,169.8906 Q333.7656,170.8594 332.4219,170.8594 Z "/><text fill="#000000" font-family="Consolas" font-size="16" lengthAdjust="spacingAndGlyphs" textLength="144" x="347" y="170.25">DataTransferImpl</text><line style="stroke: #A80036; stroke-width: 1.5;" x1="319" x2="493" y1="181" y2="181"/><line style="stroke: #A80036; stroke-width: 1.5;" x1="319" x2="493" y1="189" y2="189"/><!--MD5=[03be55fb4aae919908819e432b9694ea]
class Phone--><rect fill="#FEFECE" filter="url(#fdd0olb8cp6n4)" height="48" id="Phone" style="stroke: #A80036; stroke-width: 1.5;" width="77" x="234.5" y="257"/><ellipse cx="249.5" cy="273" fill="#ADD1B2" rx="11" ry="11" style="stroke: #A80036; stroke-width: 1.0;"/><path d="M248.9219,278.8594 Q246.8906,278.8594 245.7031,277.3594 Q244.5313,275.8594 244.5313,272.75 Q244.5313,270.1094 245.7813,268.3438 Q247.0313,266.5625 249.1875,266.5625 Q249.7031,266.5625 250.2344,266.7031 Q250.6719,266.8906 250.9219,266.8906 Q251.1094,266.8906 251.2031,266.8594 Q251.2969,266.8125 251.8438,266.0938 L252.6563,270.0625 L251.6094,270.375 Q251.1563,268.875 250.5625,268.2969 Q249.9844,267.7031 249.0625,267.7031 Q247.8906,267.7031 247.1875,269.1094 Q246.4844,270.5 246.4844,272.6719 Q246.4844,275.0625 247.0781,276.3281 Q247.6875,277.5781 249,277.5781 Q249.9219,277.5781 250.5938,276.9063 Q251.2656,276.2188 251.5938,274.6406 L252.6406,275.1406 Q252.2344,276.9063 251.25,277.8906 Q250.2656,278.8594 248.9219,278.8594 Z "/><text fill="#000000" font-family="Consolas" font-size="16" lengthAdjust="spacingAndGlyphs" textLength="45" x="263.5" y="278.25">Phone</text><line style="stroke: #A80036; stroke-width: 1.5;" x1="235.5" x2="310.5" y1="289" y2="289"/><line style="stroke: #A80036; stroke-width: 1.5;" x1="235.5" x2="310.5" y1="297" y2="297"/><!--MD5=[65cc919f85ef9c63d08da5809f83f085]
reverse link ConnectionManger to DataTransfer--><path d="M245.4,48.5 C255.18,48.5 264.95,48.5 274.73,48.5 " fill="none" id="ConnectionManger&lt;-DataTransfer" style="stroke: #A80036; stroke-width: 1.0; stroke-dasharray: 7.0,7.0;"/><polygon fill="#A80036" points="240.28,48.5,249.28,52.5,245.28,48.5,249.28,44.5,240.28,48.5" style="stroke: #A80036; stroke-width: 1.0;"/><!--MD5=[bf86ec3d59c9f38864ea2b9894b9139a]
reverse link ConnectionManger to ConnectionMangerImpl--><path d="M131.8,109.42 C133.87,123.45 135.94,137.57 137.6,148.84 " fill="none" id="ConnectionManger&lt;-ConnectionMangerImpl" style="stroke: #A80036; stroke-width: 1.0; stroke-dasharray: 7.0,7.0;"/><polygon fill="none" points="124.83,110.08,128.84,89.27,138.68,108.04,124.83,110.08" style="stroke: #A80036; stroke-width: 1.0;"/><!--MD5=[dc2760de853f2d36e036d6273a27355c]
reverse link DataTransfer to DataTransferImpl--><path d="M416.48,100.7 C414.01,117.49 411.39,135.32 409.39,148.95 " fill="none" id="DataTransfer&lt;-DataTransferImpl" style="stroke: #A80036; stroke-width: 1.0; stroke-dasharray: 7.0,7.0;"/><polygon fill="none" points="409.58,99.5,419.41,80.73,423.43,101.53,409.58,99.5" style="stroke: #A80036; stroke-width: 1.0;"/><!--MD5=[b9d5d332319e8581aa215b9565981f04]
link ConnectionMangerImpl to Phone--><path d="M179.93,205.26 C196.9,218.89 234.6024,249.1676 234.6024,249.1676 " fill="none" id="ConnectionMangerImpl-Phone" style="stroke: #A80036; stroke-width: 1.0;"/><polygon fill="#A80036" points="243.96,256.68,241.7854,249.8046,234.6024,249.1676,236.7771,256.043,243.96,256.68" style="stroke: #A80036; stroke-width: 1.0;"/><polygon fill="#A80036" points="169.64,197,174.154,205.7535,173.539,200.1302,179.1623,199.5151,169.64,197" style="stroke: #A80036; stroke-width: 1.0;"/><line style="stroke: #A80036; stroke-width: 1.0;" x1="173.539" x2="179.78" y1="200.1302" y2="205.14"/><!--MD5=[00d0b2bab50a6eab2dd7f45a4bea1ef1]
link DataTransferImpl to Phone--><path d="M366.78,205.26 C349.67,218.89 311.642,249.1982 311.642,249.1982 " fill="none" id="DataTransferImpl-Phone" style="stroke: #A80036; stroke-width: 1.0;"/><polygon fill="#A80036" points="302.26,256.68,309.4449,256.0664,311.642,249.1982,304.4571,249.8117,302.26,256.68" style="stroke: #A80036; stroke-width: 1.0;"/><polygon fill="#A80036" points="377.14,197,367.6079,199.4775,373.2287,200.1148,372.5915,205.7356,377.14,197" style="stroke: #A80036; stroke-width: 1.0;"/><line style="stroke: #A80036; stroke-width: 1.0;" x1="373.2287" x2="366.975" y1="200.1148" y2="205.1"/><!--MD5=[2ed168489bd653158b938fd35a405d2d]
@startuml Phone
skinparam {
    ClassFontName Consolas
    ClassFontSize 16
    ClassAttributeFontName Consolas
    ClassAttributeFontSize 14
}

ConnectionManger <..left DataTransfer
ConnectionManger <|.. ConnectionMangerImpl
DataTransfer <|.. DataTransferImpl
ConnectionMangerImpl <- -* Phone
DataTransferImpl <- -* Phone

interface ConnectionManger {
    + void dial(String phoneNum)
    + void hangUp()
}

interface DataTransfer {
    + DataTransfer(ConnectionManger con)
}
@enduml

PlantUML version 1.2020.10(Sun May 17 17:35:57 CST 2020)
(GPL source distribution)
Java Runtime: OpenJDK Runtime Environment
JVM: OpenJDK 64-Bit Server VM
Java Version: 11.0.8+10
Operating System: Windows 10
Default Encoding: GBK
Language: zh
Country: CN
--></g></svg>