<?xml version="1.0" encoding="UTF-8" standalone="no"?><svg xmlns="http://www.w3.org/2000/svg" xmlns:xlink="http://www.w3.org/1999/xlink" contentScriptType="application/ecmascript" contentStyleType="text/css" height="381px" preserveAspectRatio="none" style="width:680px;height:381px;" version="1.1" viewBox="0 0 680 381" width="680px" zoomAndPan="magnify"><defs><filter height="300%" id="fqeas3qhwzxd8" width="300%" x="-1" y="-1"><feGaussianBlur result="blurOut" stdDeviation="2.0"/><feColorMatrix in="blurOut" result="blurOut2" type="matrix" values="0 0 0 0 0 0 0 0 0 0 0 0 0 0 0 0 0 0 .4 0"/><feOffset dx="4.0" dy="4.0" in="blurOut2" result="blurOut3"/><feBlend in="SourceGraphic" in2="blurOut3" mode="normal"/></filter></defs><g><!--MD5=[b6667b59dcb70c65bbad83dee9726c48]
class UserBO--><rect fill="#FEFECE" filter="url(#fqeas3qhwzxd8)" height="146.3555" id="UserBO" style="stroke: #A80036; stroke-width: 1.5;" width="290" x="6" y="8"/><ellipse cx="119.75" cy="24" fill="#B4A7E5" rx="11" ry="11" style="stroke: #A80036; stroke-width: 1.0;"/><path d="M116.3438,18.7813 L116.3438,17.6875 L122.3438,17.6875 L122.3438,18.7813 L120.4688,18.7813 Q120.3281,18.7813 120.2656,18.8281 Q120.2188,18.8594 120.2188,18.9688 L120.2188,28.4531 Q120.2188,28.5625 120.2656,28.6094 Q120.3281,28.6406 120.4688,28.6406 L122.3438,28.6406 L122.3438,29.7344 L116.3438,29.7344 L116.3438,28.6406 L118.2188,28.6406 Q118.4063,28.6406 118.4375,28.6094 Q118.4688,28.5781 118.4688,28.4531 L118.4688,18.9688 Q118.4688,18.8438 118.4375,18.8125 Q118.4063,18.7813 118.2188,18.7813 L116.3438,18.7813 Z "/><text fill="#000000" font-family="Consolas" font-size="16" font-style="italic" lengthAdjust="spacingAndGlyphs" textLength="54" x="140.25" y="29.25">UserBO</text><line style="stroke: #A80036; stroke-width: 1.5;" x1="7" x2="295" y1="40" y2="40"/><line style="stroke: #A80036; stroke-width: 1.5;" x1="7" x2="295" y1="48" y2="48"/><ellipse cx="17" cy="59" fill="#84BE84" rx="3" ry="3" style="stroke: #038048; stroke-width: 1.0;"/><text fill="#000000" font-family="Consolas" font-size="14" lengthAdjust="spacingAndGlyphs" textLength="232" x="26" y="64.79">void setUserId(String userId)</text><ellipse cx="17" cy="75.3926" fill="#84BE84" rx="3" ry="3" style="stroke: #038048; stroke-width: 1.0;"/><text fill="#000000" font-family="Consolas" font-size="14" lengthAdjust="spacingAndGlyphs" textLength="144" x="26" y="81.1826">String getUserId()</text><ellipse cx="17" cy="91.7852" fill="#84BE84" rx="3" ry="3" style="stroke: #038048; stroke-width: 1.0;"/><text fill="#000000" font-family="Consolas" font-size="14" lengthAdjust="spacingAndGlyphs" textLength="264" x="26" y="97.5752">void setPassword(String password)</text><ellipse cx="17" cy="108.1777" fill="#84BE84" rx="3" ry="3" style="stroke: #038048; stroke-width: 1.0;"/><text fill="#000000" font-family="Consolas" font-size="14" lengthAdjust="spacingAndGlyphs" textLength="160" x="26" y="113.9678">String getPassword()</text><ellipse cx="17" cy="124.5703" fill="#84BE84" rx="3" ry="3" style="stroke: #038048; stroke-width: 1.0;"/><text fill="#000000" font-family="Consolas" font-size="14" lengthAdjust="spacingAndGlyphs" textLength="232" x="26" y="130.3604">void setUsername(String name)</text><ellipse cx="17" cy="140.9629" fill="#84BE84" rx="3" ry="3" style="stroke: #038048; stroke-width: 1.0;"/><text fill="#000000" font-family="Consolas" font-size="14" lengthAdjust="spacingAndGlyphs" textLength="160" x="26" y="146.7529">String getUsername()</text><!--MD5=[9e94af7e26ddd61f16675ec5a7d7b75f]
class UserInfo--><rect fill="#FEFECE" filter="url(#fqeas3qhwzxd8)" height="48" id="UserInfo" style="stroke: #A80036; stroke-width: 1.5;" width="104" x="273" y="214"/><ellipse cx="288" cy="230" fill="#B4A7E5" rx="11" ry="11" style="stroke: #A80036; stroke-width: 1.0;"/><path d="M284.5938,224.7813 L284.5938,223.6875 L290.5938,223.6875 L290.5938,224.7813 L288.7188,224.7813 Q288.5781,224.7813 288.5156,224.8281 Q288.4688,224.8594 288.4688,224.9688 L288.4688,234.4531 Q288.4688,234.5625 288.5156,234.6094 Q288.5781,234.6406 288.7188,234.6406 L290.5938,234.6406 L290.5938,235.7344 L284.5938,235.7344 L284.5938,234.6406 L286.4688,234.6406 Q286.6563,234.6406 286.6875,234.6094 Q286.7188,234.5781 286.7188,234.4531 L286.7188,224.9688 Q286.7188,224.8438 286.6875,224.8125 Q286.6563,224.7813 286.4688,224.7813 L284.5938,224.7813 Z "/><text fill="#000000" font-family="Consolas" font-size="16" font-style="italic" lengthAdjust="spacingAndGlyphs" textLength="72" x="302" y="235.25">UserInfo</text><line style="stroke: #A80036; stroke-width: 1.5;" x1="274" x2="376" y1="246" y2="246"/><line style="stroke: #A80036; stroke-width: 1.5;" x1="274" x2="376" y1="254" y2="254"/><!--MD5=[fc2d488e258a7ac513eb5f6dd91a786b]
class UserBiz--><rect fill="#FEFECE" filter="url(#fqeas3qhwzxd8)" height="129.9629" id="UserBiz" style="stroke: #A80036; stroke-width: 1.5;" width="338" x="331" y="16"/><ellipse cx="464.25" cy="32" fill="#B4A7E5" rx="11" ry="11" style="stroke: #A80036; stroke-width: 1.0;"/><path d="M460.8438,26.7813 L460.8438,25.6875 L466.8438,25.6875 L466.8438,26.7813 L464.9688,26.7813 Q464.8281,26.7813 464.7656,26.8281 Q464.7188,26.8594 464.7188,26.9688 L464.7188,36.4531 Q464.7188,36.5625 464.7656,36.6094 Q464.8281,36.6406 464.9688,36.6406 L466.8438,36.6406 L466.8438,37.7344 L460.8438,37.7344 L460.8438,36.6406 L462.7188,36.6406 Q462.9063,36.6406 462.9375,36.6094 Q462.9688,36.5781 462.9688,36.4531 L462.9688,26.9688 Q462.9688,26.8438 462.9375,26.8125 Q462.9063,26.7813 462.7188,26.7813 L460.8438,26.7813 Z "/><text fill="#000000" font-family="Consolas" font-size="16" font-style="italic" lengthAdjust="spacingAndGlyphs" textLength="63" x="484.75" y="37.25">UserBiz</text><line style="stroke: #A80036; stroke-width: 1.5;" x1="332" x2="668" y1="48" y2="48"/><line style="stroke: #A80036; stroke-width: 1.5;" x1="332" x2="668" y1="56" y2="56"/><ellipse cx="342" cy="67" fill="#84BE84" rx="3" ry="3" style="stroke: #038048; stroke-width: 1.0;"/><text fill="#000000" font-family="Consolas" font-size="14" lengthAdjust="spacingAndGlyphs" textLength="312" x="351" y="72.79">boolean changePassword(String password)</text><ellipse cx="342" cy="83.3926" fill="#84BE84" rx="3" ry="3" style="stroke: #038048; stroke-width: 1.0;"/><text fill="#000000" font-family="Consolas" font-size="14" lengthAdjust="spacingAndGlyphs" textLength="160" x="351" y="89.1826">boolean deleteUser()</text><ellipse cx="342" cy="99.7852" fill="#84BE84" rx="3" ry="3" style="stroke: #038048; stroke-width: 1.0;"/><text fill="#000000" font-family="Consolas" font-size="14" lengthAdjust="spacingAndGlyphs" textLength="112" x="351" y="105.5752">void mapUser()</text><ellipse cx="342" cy="116.1777" fill="#84BE84" rx="3" ry="3" style="stroke: #038048; stroke-width: 1.0;"/><text fill="#000000" font-family="Consolas" font-size="14" lengthAdjust="spacingAndGlyphs" textLength="200" x="351" y="121.9678">boolean addOrg(int orgId)</text><ellipse cx="342" cy="132.5703" fill="#84BE84" rx="3" ry="3" style="stroke: #038048; stroke-width: 1.0;"/><text fill="#000000" font-family="Consolas" font-size="14" lengthAdjust="spacingAndGlyphs" textLength="216" x="351" y="138.3604">boolean addRole(int roleId)</text><!--MD5=[74209e0d9ce79dbf298c1f6f66a32bb3]
class UserInfoImpl--><rect fill="#FEFECE" filter="url(#fqeas3qhwzxd8)" height="48" id="UserInfoImpl" style="stroke: #A80036; stroke-width: 1.5;" width="140" x="255" y="322"/><ellipse cx="270" cy="338" fill="#ADD1B2" rx="11" ry="11" style="stroke: #A80036; stroke-width: 1.0;"/><path d="M269.4219,343.8594 Q267.3906,343.8594 266.2031,342.3594 Q265.0313,340.8594 265.0313,337.75 Q265.0313,335.1094 266.2813,333.3438 Q267.5313,331.5625 269.6875,331.5625 Q270.2031,331.5625 270.7344,331.7031 Q271.1719,331.8906 271.4219,331.8906 Q271.6094,331.8906 271.7031,331.8594 Q271.7969,331.8125 272.3438,331.0938 L273.1563,335.0625 L272.1094,335.375 Q271.6563,333.875 271.0625,333.2969 Q270.4844,332.7031 269.5625,332.7031 Q268.3906,332.7031 267.6875,334.1094 Q266.9844,335.5 266.9844,337.6719 Q266.9844,340.0625 267.5781,341.3281 Q268.1875,342.5781 269.5,342.5781 Q270.4219,342.5781 271.0938,341.9063 Q271.7656,341.2188 272.0938,339.6406 L273.1406,340.1406 Q272.7344,341.9063 271.75,342.8906 Q270.7656,343.8594 269.4219,343.8594 Z "/><text fill="#000000" font-family="Consolas" font-size="16" lengthAdjust="spacingAndGlyphs" textLength="108" x="284" y="343.25">UserInfoImpl</text><line style="stroke: #A80036; stroke-width: 1.5;" x1="256" x2="394" y1="354" y2="354"/><line style="stroke: #A80036; stroke-width: 1.5;" x1="256" x2="394" y1="362" y2="362"/><!--MD5=[a78a75a281e92944ce32e9dfdf26c18c]
reverse link UserBO to UserInfo--><path d="M247,167.52 C266.24,184.65 284.88,201.26 299.11,213.94 " fill="none" id="UserBO&lt;-UserInfo" style="stroke: #A80036; stroke-width: 1.0;"/><polygon fill="none" points="242.17,172.58,231.89,154.05,251.48,162.13,242.17,172.58" style="stroke: #A80036; stroke-width: 1.0;"/><!--MD5=[9dfd928c0bcb349858e59b7377985566]
reverse link UserBiz to UserInfo--><path d="M412.51,159.49 C390.1,179.34 367.69,199.18 351.16,213.83 " fill="none" id="UserBiz&lt;-UserInfo" style="stroke: #A80036; stroke-width: 1.0;"/><polygon fill="none" points="407.94,154.18,427.56,146.16,417.23,164.66,407.94,154.18" style="stroke: #A80036; stroke-width: 1.0;"/><!--MD5=[5310e1ba9a8e6780b13e9b6d9bb492ce]
reverse link UserInfo to UserInfoImpl--><path d="M325,282.02 C325,295.58 325,310.04 325,321.68 " fill="none" id="UserInfo&lt;-UserInfoImpl" style="stroke: #A80036; stroke-width: 1.0; stroke-dasharray: 7.0,7.0;"/><polygon fill="none" points="318,282,325,262,332,282,318,282" style="stroke: #A80036; stroke-width: 1.0;"/><!--MD5=[ac37c6c937e7f61bcb0d45a691588c51]
@startuml UserInfoMod
skinparam {
    ClassFontName Consolas
    ClassFontSize 16
    ClassAttributeFontName Consolas
    ClassAttributeFontSize 14
}

UserBO <|- - UserInfo
UserBiz <|- - UserInfo
UserInfo <|.. UserInfoImpl

interface UserBO {
    + void setUserId(String userId)
    + String getUserId()
    + void setPassword(String password)
    + String getPassword()
    + void setUsername(String name)
    + String getUsername()
}

interface UserBiz {
    + boolean changePassword(String password)
    + boolean deleteUser()
    + void mapUser()
    + boolean addOrg(int orgId)
    + boolean addRole(int roleId)
}

interface UserInfo {}
@enduml

PlantUML version 1.2020.10(Sun May 17 17:35:57 CST 2020)
(GPL source distribution)
Java Runtime: OpenJDK Runtime Environment
JVM: OpenJDK 64-Bit Server VM
Java Version: 11.0.8+10
Operating System: Windows 10
Default Encoding: GBK
Language: zh
Country: CN
--></g></svg>